# Blender v2.79 (sub 0) OBJ File: 'fence.blend'
# www.blender.org
mtllib Fence.mtl
o FENCE_Cube.002
v -0.033288 0.031798 -0.065766
v -0.033325 0.006559 -0.037236
v -0.033288 1.215976 -0.065766
v -0.033325 1.241215 -0.037236
v -0.033430 0.031798 0.043133
v -0.033392 0.006559 0.014603
v -0.033430 1.215976 0.043133
v -0.033392 1.241215 0.014603
v -0.059208 1.215976 -0.065800
v -0.059245 1.241215 -0.037270
v -0.087775 1.215976 -0.037307
v -0.059245 0.006559 -0.037270
v -0.059208 0.031798 -0.065800
v -0.087775 0.031798 -0.037307
v 0.021124 1.215976 -0.037165
v -0.007405 1.241215 -0.037203
v -0.007368 1.215976 -0.065732
v -0.007405 0.006559 -0.037203
v 0.021124 0.031798 -0.037165
v -0.007368 0.031798 -0.065732
v -0.087842 1.215976 0.014532
v -0.059312 1.241215 0.014569
v -0.059349 1.215976 0.043099
v -0.059312 0.006559 0.014569
v -0.087842 0.031798 0.014532
v -0.059349 0.031798 0.043099
v -0.007473 1.241215 0.014637
v 0.021057 1.215976 0.014674
v -0.007510 1.215976 0.043167
v -0.007510 0.031798 0.043167
v 0.021057 0.031798 0.014674
v -0.007473 0.006559 0.014637
v -0.223337 0.865070 0.079705
v -0.194844 0.865070 0.108272
v -0.194807 0.893600 0.079743
v 1.779977 0.893600 0.082310
v 1.779940 0.865070 0.110840
v 1.808507 0.865070 0.082348
v -0.194807 0.784701 0.079743
v -0.194844 0.813231 0.108272
v -0.223337 0.813231 0.079705
v 1.779977 0.784701 0.082310
v 1.808507 0.813231 0.082348
v 1.779940 0.813231 0.110840
v 1.808555 0.865070 0.045528
v 1.780025 0.893600 0.045491
v -0.223289 0.865070 0.042886
v -0.194759 0.893600 0.042923
v 1.808555 0.813231 0.045528
v 1.780025 0.784701 0.045491
v -0.223289 0.813231 0.042886
v -0.194759 0.784701 0.042923
v 1.623497 0.006559 0.016758
v 1.652027 0.031798 0.016795
v 1.623460 0.031798 0.045288
v 1.623460 1.215976 0.045288
v 1.652027 1.215976 0.016795
v 1.623497 1.241215 0.016758
v 1.571621 0.031798 0.045220
v 1.543128 0.031798 0.016653
v 1.571658 0.006559 0.016690
v 1.571621 1.215976 0.045220
v 1.571658 1.241215 0.016690
v 1.543128 1.215976 0.016653
v 1.623602 0.031798 -0.063611
v 1.652095 0.031798 -0.035045
v 1.623565 0.006559 -0.035082
v 1.623602 1.215976 -0.063611
v 1.623565 1.241215 -0.035082
v 1.652095 1.215976 -0.035045
v 1.543196 0.031798 -0.035186
v 1.571763 0.031798 -0.063679
v 1.571726 0.006559 -0.035149
v 1.543196 1.215976 -0.035186
v 1.571726 1.241215 -0.035149
v 1.571763 1.215976 -0.063679
v 1.597578 1.241215 0.016724
v 1.597541 1.215976 0.045254
v 1.597578 0.006559 0.016724
v 1.597541 0.031798 0.045254
v 1.597645 1.241215 -0.035115
v 1.597682 1.215976 -0.063645
v 1.597645 0.006559 -0.035115
v 1.597682 0.031798 -0.063645
v -0.223337 0.375364 0.079705
v -0.194844 0.375364 0.108272
v -0.194807 0.403893 0.079743
v 1.779977 0.403893 0.082310
v 1.779940 0.375364 0.110840
v 1.808507 0.375364 0.082348
v -0.194807 0.294994 0.079743
v -0.194844 0.323524 0.108272
v -0.223337 0.323524 0.079705
v 1.779977 0.294994 0.082310
v 1.808507 0.323524 0.082348
v 1.779940 0.323524 0.110840
v 1.808555 0.375364 0.045528
v 1.780025 0.403893 0.045491
v -0.223289 0.375364 0.042886
v -0.194759 0.403893 0.042923
v 1.808555 0.323524 0.045528
v 1.780025 0.294994 0.045491
v -0.223289 0.323524 0.042886
v -0.194759 0.294994 0.042923
v 1.652027 0.031798 0.016795
v 1.623460 0.031798 0.045288
v 1.623460 1.215976 0.045288
v 1.652027 1.215976 0.016795
v 1.571621 0.031798 0.045220
v 1.543128 0.031798 0.016653
v 1.571621 1.215976 0.045220
v 1.543128 1.215976 0.016653
v 1.623602 0.031798 -0.063611
v 1.652095 0.031798 -0.035045
v 1.623602 1.215976 -0.063611
v 1.652095 1.215976 -0.035045
v 1.543196 0.031798 -0.035186
v 1.571763 0.031798 -0.063679
v 1.543196 1.215976 -0.035186
v 1.571763 1.215976 -0.063679
v 1.597541 1.215976 0.045254
v 1.597541 0.031798 0.045254
v 1.597682 1.215976 -0.063645
v 1.597682 0.031798 -0.063645
vt 0.441832 0.960704
vt 0.470991 0.906752
vt 0.470991 0.960704
vt 0.760768 0.771955
vt 0.794681 0.117535
vt 0.794681 0.771955
vt 0.441832 0.906752
vt 0.412672 0.960704
vt 0.412672 0.906752
vt 0.441832 0.960704
vt 0.412672 0.990397
vt 0.412672 0.990397
vt 0.412672 0.960704
vt 0.470991 0.877059
vt 0.470991 0.906752
vt 0.441832 0.906752
vt 0.470991 0.877059
vt 0.618285 0.117535
vt 0.584372 0.771955
vt 0.584372 0.117535
vt 0.652198 0.117535
vt 0.618285 0.771955
vt 0.503087 0.960704
vt 0.380576 0.906752
vt 0.412672 0.906752
vt 0.441832 0.877059
vt 0.689527 0.117535
vt 0.726855 0.771955
vt 0.689527 0.771955
vt 0.441832 0.877059
vt 0.380576 0.906752
vt 0.832009 0.771955
vt 0.503087 0.960704
vt 0.470991 0.960704
vt 0.441832 0.990397
vt 0.689527 0.771955
vt 0.689526 0.117535
vt 0.441832 0.990397
vt 0.547044 0.117535
vt 0.547044 0.771955
vt 0.503087 0.906752
vt 0.412672 0.877059
vt 0.412672 0.877059
vt 0.503087 0.906752
vt 0.470991 0.990397
vt 0.380576 0.960704
vt 0.380576 0.960704
vt 0.470991 0.990397
vt 0.967661 0.117535
vt 0.899835 0.771955
vt 0.899835 0.117535
vt 0.899835 0.117535
vt 0.832009 0.771955
vt 0.832009 0.117535
vt 0.760768 0.117535
vt 0.260164 0.020442
vt 0.240088 0.979558
vt 0.240088 0.020442
vt 0.177841 0.979558
vt 0.217992 0.020442
vt 0.217992 0.979558
vt 0.464818 0.485190
vt 0.372259 0.485180
vt 0.418543 0.433559
vt 0.758089 0.953349
vt 0.721956 0.999157
vt 0.721955 0.953349
vt 0.418523 0.630618
vt 0.372249 0.578987
vt 0.464808 0.578997
vt 0.620167 0.953351
vt 0.656300 0.953350
vt 0.656301 0.999158
vt 0.155744 0.020442
vt 0.177841 0.020442
vt 0.460589 0.433563
vt 0.506863 0.485194
vt 0.658935 0.910183
vt 0.622802 0.951800
vt 0.622802 0.910183
vt 0.240088 0.979558
vt 0.155744 0.020442
vt 0.135669 0.979558
vt 0.135669 0.020442
vt 0.506853 0.579001
vt 0.724590 0.910182
vt 0.760724 0.951799
vt 0.724591 0.951799
vt 0.658935 0.951800
vt 0.053164 0.028977
vt 0.077424 0.009771
vt 0.121106 0.010263
vt 0.412672 0.960704
vt 0.441832 0.906752
vt 0.441832 0.960704
vt 0.470991 0.906752
vt 0.441832 0.960704
vt 0.441832 0.906752
vt 0.470991 0.960704
vt 0.503087 0.960704
vt 0.470991 0.990397
vt 0.412672 0.990397
vt 0.380576 0.960704
vt 0.412672 0.960704
vt 0.412672 0.990397
vt 0.380576 0.960704
vt 0.470991 0.990397
vt 0.470991 0.960704
vt 0.503087 0.960704
vt 0.470991 0.877059
vt 0.503087 0.906752
vt 0.470991 0.906752
vt 0.412672 0.877059
vt 0.412672 0.906752
vt 0.380576 0.906752
vt 0.380576 0.906752
vt 0.412672 0.877059
vt 0.412672 0.906752
vt 0.503087 0.906752
vt 0.470991 0.877059
vt 0.441832 0.990397
vt 0.441832 0.990397
vt 0.441832 0.877059
vt 0.441832 0.877059
vt 0.135669 0.020442
vt 0.115594 0.979558
vt 0.115594 0.020442
vt 0.053347 0.979558
vt 0.093497 0.020442
vt 0.093497 0.979558
vt 0.464818 0.485180
vt 0.372259 0.485180
vt 0.418538 0.433554
vt 0.758089 0.953349
vt 0.721956 0.999157
vt 0.721955 0.953349
vt 0.418538 0.630614
vt 0.372259 0.578987
vt 0.464818 0.578987
vt 0.620167 0.953351
vt 0.656300 0.953350
vt 0.656301 0.999158
vt 0.031250 0.020442
vt 0.053347 0.020442
vt 0.460584 0.433554
vt 0.506863 0.485180
vt 0.658935 0.910183
vt 0.622802 0.951800
vt 0.622802 0.910183
vt 0.115594 0.979558
vt 0.031250 0.020442
vt 0.011175 0.979558
vt 0.011175 0.020442
vt 0.506863 0.578987
vt 0.724590 0.910182
vt 0.760724 0.951799
vt 0.724591 0.951799
vt 0.658935 0.951800
vt 0.166924 0.033371
vt 0.190966 0.013893
vt 0.234651 0.013893
vt 0.794681 0.117535
vt 0.760768 0.771955
vt 0.760768 0.117535
vt 0.899835 0.117535
vt 0.832009 0.771955
vt 0.832009 0.117535
vt 0.967661 0.117535
vt 0.899835 0.771955
vt 0.899835 0.117535
vt 0.547044 0.117535
vt 0.584372 0.771955
vt 0.547044 0.771955
vt 0.689527 0.771955
vt 0.652198 0.117535
vt 0.689526 0.117535
vt 0.726855 0.771955
vt 0.689527 0.117535
vt 0.726855 0.117535
vt 0.618285 0.771955
vt 0.618285 0.117535
vt 0.584372 0.117535
vt 0.652198 0.771955
vt 0.726855 0.117535
vt 0.832009 0.117535
vt 0.967661 0.771955
vt 0.899835 0.771955
vt 0.260163 0.979558
vt 0.155745 0.979558
vt 0.240088 0.020442
vt 0.155745 0.979558
vt 0.460569 0.630623
vt 0.760723 0.910182
vt 0.144927 0.030010
vt 0.134632 0.943842
vt 0.110372 0.963048
vt 0.066690 0.962556
vt 0.042869 0.942808
vt 0.135669 0.979558
vt 0.031250 0.979558
vt 0.115594 0.020442
vt 0.031250 0.979558
vt 0.460584 0.630614
vt 0.760723 0.910182
vt 0.258693 0.033371
vt 0.258692 0.947260
vt 0.234651 0.966739
vt 0.190966 0.966739
vt 0.166924 0.947260
vt 0.794681 0.771955
vt 0.899835 0.771955
vt 0.967661 0.771955
vt 0.652199 0.771955
vt 0.689527 0.771955
vn 0.0000 -1.0000 0.0000
vn 0.0013 0.0000 -1.0000
vn 0.0000 1.0000 -0.0000
vn -0.0009 0.7490 0.6626
vn -0.0009 -0.7490 0.6626
vn 0.0009 0.7490 -0.6626
vn 0.0009 -0.7490 -0.6626
vn -0.0013 0.0000 1.0000
vn 0.6626 -0.7490 0.0009
vn 0.6626 0.7490 0.0009
vn 0.7080 0.0000 -0.7062
vn -0.6626 -0.7490 -0.0009
vn -0.7062 0.0000 -0.7080
vn -0.6626 0.7490 -0.0009
vn -0.7080 0.0000 0.7062
vn 0.7062 0.0000 0.7080
vn -0.5516 0.6244 -0.5531
vn -0.5516 -0.6244 -0.5531
vn 0.5531 0.6244 -0.5516
vn 0.5531 -0.6244 -0.5516
vn -0.5531 0.6244 0.5516
vn -0.5531 -0.6244 0.5516
vn 0.5516 0.6244 0.5531
vn 0.5516 -0.6244 0.5531
vn -1.0000 0.0000 -0.0013
vn 1.0000 0.0000 0.0013
vn -0.5781 0.5773 0.5766
vn 0.5766 0.5773 0.5781
vn -0.5781 -0.5773 0.5766
vn 0.5766 -0.5773 0.5781
vn -0.0009 0.7071 0.7071
vn -0.7071 0.7071 -0.0009
vn 0.7071 -0.7071 0.0009
vn -0.0009 -0.7071 0.7071
vn -0.7071 -0.7071 -0.0009
vn 0.7071 0.7071 0.0009
usemtl textUV.002
s off
f 6/1/1 18/2/1 32/3/1
f 3/4/2 13/5/2 9/6/2
f 4/7/3 27/8/3 16/9/3
f 8/10/4 29/11/4 27/8/4
f 6/1/5 26/12/5 24/13/5
f 4/7/6 9/14/6 10/15/6
f 2/16/7 20/17/7 18/2/7
f 7/18/8 30/19/8 29/20/8
f 23/21/8 5/22/8 7/18/8
f 18/2/9 31/23/9 32/3/9
f 27/8/10 15/24/10 16/9/10
f 12/25/7 1/26/7 2/16/7
f 19/27/11 17/28/11 15/29/11
f 16/9/6 3/30/6 4/7/6
f 24/13/12 14/31/12 12/25/12
f 13/5/13 11/32/13 9/6/13
f 10/15/14 21/33/14 22/34/14
f 32/3/5 5/35/5 6/1/5
f 25/36/15 23/21/15 21/37/15
f 22/34/4 7/38/4 8/10/4
f 28/39/16 30/19/16 31/40/16
f 11/41/17 10/15/17 9/14/17
f 14/31/18 13/42/18 12/25/18
f 17/43/19 16/9/19 15/24/19
f 20/17/20 19/44/20 18/2/20
f 23/45/21 22/34/21 21/33/21
f 26/12/22 25/46/22 24/13/22
f 29/11/23 28/47/23 27/8/23
f 32/3/24 31/23/24 30/48/24
f 11/49/25 25/50/25 21/51/25
f 28/52/26 19/53/26 15/54/26
f 10/15/3 8/10/3 4/7/3
f 17/28/2 1/55/2 3/4/2
f 24/13/1 2/16/1 6/1/1
f 42/56/1 52/57/1 50/58/1
f 37/59/8 40/60/8 44/61/8
f 33/62/27 34/63/27 35/64/27
f 36/65/28 37/66/28 38/67/28
f 39/68/29 40/69/29 41/70/29
f 42/71/30 43/72/30 44/73/30
f 37/59/31 35/74/31 34/75/31
f 33/62/32 48/76/32 47/77/32
f 49/78/33 42/79/33 50/80/33
f 40/60/34 42/81/34 44/61/34
f 43/72/16 37/66/16 44/73/16
f 33/62/15 40/69/15 34/63/15
f 46/82/3 35/83/3 36/84/3
f 51/85/35 39/68/35 41/70/35
f 45/86/36 36/87/36 38/88/36
f 49/78/26 38/88/26 43/89/26
f 33/62/25 51/85/25 41/70/25
f 52/90/2 51/91/2 47/92/2
f 61/93/1 83/94/1 79/95/1
f 75/96/3 77/97/3 81/98/3
f 53/99/24 54/100/24 55/101/24
f 56/102/23 57/103/23 58/104/23
f 59/105/22 60/106/22 61/93/22
f 62/107/21 63/108/21 64/109/21
f 65/110/20 66/111/20 67/112/20
f 68/113/19 69/114/19 70/115/19
f 71/116/18 72/117/18 73/118/18
f 74/119/17 75/96/17 76/120/17
f 63/108/4 78/121/4 77/97/4
f 53/99/5 80/122/5 79/95/5
f 75/96/14 64/109/14 63/108/14
f 61/93/12 71/116/12 73/118/12
f 69/114/6 82/123/6 81/98/6
f 73/118/7 84/124/7 83/94/7
f 58/104/10 70/115/10 69/114/10
f 67/112/9 54/100/9 53/99/9
f 83/94/7 65/110/7 67/112/7
f 81/98/6 76/120/6 75/96/6
f 79/95/5 59/105/5 61/93/5
f 77/97/4 56/102/4 58/104/4
f 81/98/3 58/104/3 69/114/3
f 79/95/1 67/112/1 53/99/1
f 94/125/1 104/126/1 102/127/1
f 89/128/8 92/129/8 96/130/8
f 85/131/27 86/132/27 87/133/27
f 88/134/28 89/135/28 90/136/28
f 91/137/29 92/138/29 93/139/29
f 94/140/30 95/141/30 96/142/30
f 89/128/31 87/143/31 86/144/31
f 85/131/32 100/145/32 99/146/32
f 101/147/33 94/148/33 102/149/33
f 92/129/34 94/150/34 96/130/34
f 95/141/16 89/135/16 96/142/16
f 85/131/15 92/138/15 86/132/15
f 98/151/3 87/152/3 88/153/3
f 103/154/35 91/137/35 93/139/35
f 97/155/36 88/156/36 90/157/36
f 101/147/26 90/157/26 95/158/26
f 85/131/25 103/154/25 93/139/25
f 104/159/2 103/160/2 99/161/2
f 115/162/2 124/163/2 123/164/2
f 108/165/26 114/166/26 116/167/26
f 119/168/25 110/169/25 112/170/25
f 108/171/16 106/172/16 105/173/16
f 110/174/15 111/175/15 112/176/15
f 118/177/13 119/178/13 120/179/13
f 114/166/11 115/162/11 116/167/11
f 111/175/8 122/180/8 121/181/8
f 121/181/8 106/172/8 107/182/8
f 123/164/2 118/177/2 120/179/2
f 6/1/1 2/16/1 18/2/1
f 3/4/2 1/55/2 13/5/2
f 4/7/3 8/10/3 27/8/3
f 8/10/4 7/38/4 29/11/4
f 6/1/5 5/35/5 26/12/5
f 4/7/6 3/30/6 9/14/6
f 2/16/7 1/26/7 20/17/7
f 7/18/8 5/22/8 30/19/8
f 23/21/8 26/183/8 5/22/8
f 18/2/9 19/44/9 31/23/9
f 27/8/10 28/47/10 15/24/10
f 12/25/7 13/42/7 1/26/7
f 19/27/11 20/184/11 17/28/11
f 16/9/6 17/43/6 3/30/6
f 24/13/12 25/46/12 14/31/12
f 13/5/13 14/185/13 11/32/13
f 10/15/14 11/41/14 21/33/14
f 32/3/5 30/48/5 5/35/5
f 25/36/15 26/183/15 23/21/15
f 22/34/4 23/45/4 7/38/4
f 28/39/16 29/20/16 30/19/16
f 11/49/25 14/186/25 25/50/25
f 28/52/26 31/187/26 19/53/26
f 10/15/3 22/34/3 8/10/3
f 17/28/2 20/184/2 1/55/2
f 24/13/1 12/25/1 2/16/1
f 42/56/1 39/188/1 52/57/1
f 37/59/8 34/75/8 40/60/8
f 37/59/31 36/189/31 35/74/31
f 33/62/32 35/64/32 48/76/32
f 49/78/33 43/89/33 42/79/33
f 40/60/34 39/190/34 42/81/34
f 43/72/16 38/67/16 37/66/16
f 33/62/15 41/70/15 40/69/15
f 46/82/3 48/191/3 35/83/3
f 51/85/35 52/192/35 39/68/35
f 45/86/36 46/193/36 36/87/36
f 49/78/26 45/86/26 38/88/26
f 33/62/25 47/77/25 51/85/25
f 47/92/2 48/194/2 52/90/2
f 48/194/2 46/195/2 52/90/2
f 46/195/2 45/196/2 49/197/2
f 49/197/2 50/198/2 46/195/2
f 50/198/2 52/90/2 46/195/2
f 61/93/1 73/118/1 83/94/1
f 75/96/3 63/108/3 77/97/3
f 63/108/4 62/107/4 78/121/4
f 53/99/5 55/101/5 80/122/5
f 75/96/14 74/119/14 64/109/14
f 61/93/12 60/106/12 71/116/12
f 69/114/6 68/113/6 82/123/6
f 73/118/7 72/117/7 84/124/7
f 58/104/10 57/103/10 70/115/10
f 67/112/9 66/111/9 54/100/9
f 83/94/7 84/124/7 65/110/7
f 81/98/6 82/123/6 76/120/6
f 79/95/5 80/122/5 59/105/5
f 77/97/4 78/121/4 56/102/4
f 81/98/3 77/97/3 58/104/3
f 79/95/1 83/94/1 67/112/1
f 94/125/1 91/199/1 104/126/1
f 89/128/8 86/144/8 92/129/8
f 89/128/31 88/200/31 87/143/31
f 85/131/32 87/133/32 100/145/32
f 101/147/33 95/158/33 94/148/33
f 92/129/34 91/201/34 94/150/34
f 95/141/16 90/136/16 89/135/16
f 85/131/15 93/139/15 92/138/15
f 98/151/3 100/202/3 87/152/3
f 103/154/35 104/203/35 91/137/35
f 97/155/36 98/204/36 88/156/36
f 101/147/26 97/155/26 90/157/26
f 85/131/25 99/146/25 103/154/25
f 99/161/2 100/205/2 104/159/2
f 100/205/2 98/206/2 104/159/2
f 98/206/2 97/207/2 101/208/2
f 101/208/2 102/209/2 98/206/2
f 102/209/2 104/159/2 98/206/2
f 115/162/2 113/210/2 124/163/2
f 108/165/26 105/211/26 114/166/26
f 119/168/25 117/212/25 110/169/25
f 108/171/16 107/182/16 106/172/16
f 110/174/15 109/213/15 111/175/15
f 118/177/13 117/214/13 119/178/13
f 114/166/11 113/210/11 115/162/11
f 111/175/8 109/213/8 122/180/8
f 121/181/8 122/180/8 106/172/8
f 123/164/2 124/163/2 118/177/2
